<svg xmlns="http://www.w3.org/2000/svg" xmlns:xlink="http://www.w3.org/1999/xlink" width="500" zoomAndPan="magnify" viewBox="0 0 375 374.999991" height="500" preserveAspectRatio="xMidYMid meet" version="1.0"><defs><g/><clipPath id="2ed5e206da"><path d="M 18.757812 129.089844 L 356.242188 129.089844 L 356.242188 234.089844 L 18.757812 234.089844 Z M 18.757812 129.089844 " clip-rule="nonzero"/></clipPath><clipPath id="7ac6a82a9e"><path d="M 57.050781 221.089844 L 318 221.089844 L 318 245.839844 L 57.050781 245.839844 Z M 57.050781 221.089844 " clip-rule="nonzero"/></clipPath></defs><g clip-path="url(#2ed5e206da)"><path stroke-linecap="butt" transform="matrix(0.75, 0, 0, 0.751342, 18.759267, 129.09087)" fill="none" stroke-linejoin="miter" d="M -0.00193873 -0.00136579 L 449.977257 -0.00136579 L 449.977257 139.748641 L -0.00193873 139.748641 L -0.00193873 -0.00136579 " stroke="#fbfaf9" stroke-width="2" stroke-opacity="1" stroke-miterlimit="4"/></g><g fill="#dec2ba" fill-opacity="1"><g transform="translate(40.825366, 200.715865)"><g><path d="M 19.84375 -36.09375 C 23.382812 -36.09375 26.476562 -35.375 29.125 -33.9375 C 31.769531 -32.507812 33.828125 -30.4375 35.296875 -27.71875 C 36.765625 -25.007812 37.5 -21.769531 37.5 -18 C 37.5 -14.332031 36.75 -11.082031 35.25 -8.25 C 33.75 -5.414062 31.65625 -3.210938 28.96875 -1.640625 C 26.289062 -0.078125 23.234375 0.703125 19.796875 0.703125 C 16.265625 0.703125 13.171875 -0.0078125 10.515625 -1.4375 C 7.867188 -2.875 5.8125 -4.953125 4.34375 -7.671875 C 2.882812 -10.390625 2.15625 -13.632812 2.15625 -17.40625 C 2.15625 -21.070312 2.90625 -24.320312 4.40625 -27.15625 C 5.90625 -29.988281 7.992188 -32.1875 10.671875 -33.75 C 13.359375 -35.3125 16.414062 -36.09375 19.84375 -36.09375 Z M 19.65625 -35.203125 C 17.820312 -35.203125 16.203125 -34.457031 14.796875 -32.96875 C 13.398438 -31.488281 12.328125 -29.414062 11.578125 -26.75 C 10.828125 -24.082031 10.453125 -21.03125 10.453125 -17.59375 C 10.453125 -14.132812 10.875 -11.085938 11.71875 -8.453125 C 12.570312 -5.816406 13.722656 -3.78125 15.171875 -2.34375 C 16.617188 -0.914062 18.226562 -0.203125 20 -0.203125 C 21.832031 -0.203125 23.445312 -0.941406 24.84375 -2.421875 C 26.25 -3.910156 27.328125 -5.988281 28.078125 -8.65625 C 28.828125 -11.320312 29.203125 -14.367188 29.203125 -17.796875 C 29.203125 -21.265625 28.773438 -24.316406 27.921875 -26.953125 C 27.078125 -29.585938 25.925781 -31.617188 24.46875 -33.046875 C 23.019531 -34.484375 21.414062 -35.203125 19.65625 -35.203125 Z M 19.65625 -35.203125 "/></g></g></g><g fill="#dec2ba" fill-opacity="1"><g transform="translate(78.969234, 200.715865)"><g><path d="M 11.40625 -4.65625 C 11.40625 -3.28125 11.632812 -2.332031 12.09375 -1.8125 C 12.5625 -1.300781 13.394531 -1.046875 14.59375 -1.046875 L 14.59375 0 C 11.132812 -0.132812 8.90625 -0.203125 7.90625 -0.203125 C 6.769531 -0.203125 4.46875 -0.132812 1 0 L 1 -1.046875 C 2.164062 -1.046875 2.988281 -1.300781 3.46875 -1.8125 C 3.957031 -2.332031 4.203125 -3.28125 4.203125 -4.65625 L 4.203125 -33.15625 C 4.203125 -34.6875 3.957031 -35.800781 3.46875 -36.5 C 2.988281 -37.195312 2.164062 -37.546875 1 -37.546875 L 1 -38.59375 C 2.0625 -38.5 3.09375 -38.453125 4.09375 -38.453125 C 7 -38.453125 9.4375 -38.6875 11.40625 -39.15625 Z M 11.40625 -4.65625 "/></g></g></g><g fill="#dec2ba" fill-opacity="1"><g transform="translate(93.016824, 200.715865)"><g><path d="M 7.703125 -38.75 C 9.109375 -38.75 10.21875 -38.40625 11.03125 -37.71875 C 11.84375 -37.039062 12.25 -36.101562 12.25 -34.90625 C 12.25 -33.695312 11.84375 -32.75 11.03125 -32.0625 C 10.21875 -31.382812 9.109375 -31.046875 7.703125 -31.046875 C 6.304688 -31.046875 5.195312 -31.382812 4.375 -32.0625 C 3.5625 -32.75 3.15625 -33.695312 3.15625 -34.90625 C 3.15625 -36.101562 3.5625 -37.039062 4.375 -37.71875 C 5.195312 -38.40625 6.304688 -38.75 7.703125 -38.75 Z M 11.59375 -4.65625 C 11.59375 -3.28125 11.832031 -2.332031 12.3125 -1.8125 C 12.800781 -1.300781 13.628906 -1.046875 14.796875 -1.046875 L 14.796875 0 C 11.460938 -0.132812 9.25 -0.203125 8.15625 -0.203125 C 7.113281 -0.203125 4.796875 -0.132812 1.203125 0 L 1.203125 -1.046875 C 2.398438 -1.046875 3.234375 -1.300781 3.703125 -1.8125 C 4.171875 -2.332031 4.40625 -3.28125 4.40625 -4.65625 L 4.40625 -20.40625 C 4.40625 -21.9375 4.171875 -23.050781 3.703125 -23.75 C 3.234375 -24.445312 2.398438 -24.796875 1.203125 -24.796875 L 1.203125 -25.84375 C 2.265625 -25.75 3.296875 -25.703125 4.296875 -25.703125 C 7.265625 -25.703125 9.695312 -25.9375 11.59375 -26.40625 Z M 11.59375 -4.65625 "/></g></g></g><g fill="#dec2ba" fill-opacity="1"><g transform="translate(107.264392, 200.715865)"><g><path d="M 21.5 -25.703125 C 23.195312 -25.703125 24.476562 -25.75 25.34375 -25.84375 L 25.34375 -24.84375 C 24.644531 -24.644531 24.019531 -24.21875 23.46875 -23.5625 C 22.925781 -22.914062 22.40625 -21.910156 21.90625 -20.546875 L 14.59375 0.09375 C 14.226562 0.0625 13.679688 0.046875 12.953125 0.046875 C 12.253906 0.046875 11.71875 0.0625 11.34375 0.09375 L 2.453125 -22 C 1.984375 -23.132812 1.503906 -23.882812 1.015625 -24.25 C 0.535156 -24.613281 0.046875 -24.796875 -0.453125 -24.796875 L -0.453125 -25.84375 C 1.878906 -25.675781 4.25 -25.59375 6.65625 -25.59375 C 8.75 -25.59375 10.914062 -25.675781 13.15625 -25.84375 L 13.15625 -24.796875 C 12.019531 -24.796875 11.207031 -24.71875 10.71875 -24.5625 C 10.238281 -24.414062 10 -24.007812 10 -23.34375 C 10 -23.082031 10.082031 -22.664062 10.25 -22.09375 L 15.953125 -6.953125 L 19.546875 -16.84375 C 20.078125 -18.414062 20.34375 -19.769531 20.34375 -20.90625 C 20.34375 -23.332031 19.128906 -24.644531 16.703125 -24.84375 L 16.703125 -25.84375 C 18.234375 -25.75 19.832031 -25.703125 21.5 -25.703125 Z M 21.5 -25.703125 "/></g></g></g><g fill="#dec2ba" fill-opacity="1"><g transform="translate(131.16046, 200.715865)"><g><path d="M 7.703125 -38.75 C 9.109375 -38.75 10.21875 -38.40625 11.03125 -37.71875 C 11.84375 -37.039062 12.25 -36.101562 12.25 -34.90625 C 12.25 -33.695312 11.84375 -32.75 11.03125 -32.0625 C 10.21875 -31.382812 9.109375 -31.046875 7.703125 -31.046875 C 6.304688 -31.046875 5.195312 -31.382812 4.375 -32.0625 C 3.5625 -32.75 3.15625 -33.695312 3.15625 -34.90625 C 3.15625 -36.101562 3.5625 -37.039062 4.375 -37.71875 C 5.195312 -38.40625 6.304688 -38.75 7.703125 -38.75 Z M 11.59375 -4.65625 C 11.59375 -3.28125 11.832031 -2.332031 12.3125 -1.8125 C 12.800781 -1.300781 13.628906 -1.046875 14.796875 -1.046875 L 14.796875 0 C 11.460938 -0.132812 9.25 -0.203125 8.15625 -0.203125 C 7.113281 -0.203125 4.796875 -0.132812 1.203125 0 L 1.203125 -1.046875 C 2.398438 -1.046875 3.234375 -1.300781 3.703125 -1.8125 C 4.171875 -2.332031 4.40625 -3.28125 4.40625 -4.65625 L 4.40625 -20.40625 C 4.40625 -21.9375 4.171875 -23.050781 3.703125 -23.75 C 3.234375 -24.445312 2.398438 -24.796875 1.203125 -24.796875 L 1.203125 -25.84375 C 2.265625 -25.75 3.296875 -25.703125 4.296875 -25.703125 C 7.265625 -25.703125 9.695312 -25.9375 11.59375 -26.40625 Z M 11.59375 -4.65625 "/></g></g></g><g fill="#dec2ba" fill-opacity="1"><g transform="translate(145.408028, 200.715865)"><g><path d="M 7.796875 0.34375 C 5.660156 0.34375 4.066406 -0.203125 3.015625 -1.296875 C 1.972656 -2.398438 1.453125 -3.851562 1.453125 -5.65625 C 1.453125 -7.15625 1.84375 -8.394531 2.625 -9.375 C 3.40625 -10.351562 4.351562 -11.109375 5.46875 -11.640625 C 6.59375 -12.179688 8.019531 -12.75 9.75 -13.34375 C 11.582031 -13.976562 12.921875 -14.550781 13.765625 -15.0625 C 14.617188 -15.582031 15.046875 -16.296875 15.046875 -17.203125 L 15.046875 -21.09375 C 15.046875 -22.5 14.71875 -23.59375 14.0625 -24.375 C 13.414062 -25.15625 12.410156 -25.546875 11.046875 -25.546875 C 9.453125 -25.546875 8.238281 -25.144531 7.40625 -24.34375 C 8.332031 -24.007812 9.050781 -23.507812 9.5625 -22.84375 C 10.082031 -22.175781 10.34375 -21.394531 10.34375 -20.5 C 10.34375 -19.363281 9.957031 -18.460938 9.1875 -17.796875 C 8.425781 -17.128906 7.5 -16.796875 6.40625 -16.796875 C 5.238281 -16.796875 4.335938 -17.160156 3.703125 -17.890625 C 3.066406 -18.628906 2.75 -19.550781 2.75 -20.65625 C 2.75 -21.582031 2.972656 -22.367188 3.421875 -23.015625 C 3.867188 -23.671875 4.5625 -24.28125 5.5 -24.84375 C 6.394531 -25.382812 7.5 -25.800781 8.8125 -26.09375 C 10.132812 -26.394531 11.582031 -26.546875 13.15625 -26.546875 C 14.78125 -26.546875 16.191406 -26.378906 17.390625 -26.046875 C 18.597656 -25.710938 19.601562 -25.144531 20.40625 -24.34375 C 21.132812 -23.613281 21.625 -22.710938 21.875 -21.640625 C 22.125 -20.578125 22.25 -19.128906 22.25 -17.296875 L 22.25 -3.703125 C 22.25 -2.898438 22.320312 -2.332031 22.46875 -2 C 22.625 -1.664062 22.914062 -1.5 23.34375 -1.5 C 23.84375 -1.5 24.445312 -1.78125 25.15625 -2.34375 L 25.65625 -1.5 C 24.15625 -0.269531 22.320312 0.34375 20.15625 0.34375 C 18.320312 0.34375 17.035156 -0.0195312 16.296875 -0.75 C 15.566406 -1.476562 15.1875 -2.460938 15.15625 -3.703125 C 13.488281 -1.003906 11.035156 0.34375 7.796875 0.34375 Z M 11.65625 -2.84375 C 12.945312 -2.84375 14.078125 -3.53125 15.046875 -4.90625 L 15.046875 -15.15625 C 14.648438 -14.488281 13.800781 -13.753906 12.5 -12.953125 C 11.195312 -12.117188 10.210938 -11.285156 9.546875 -10.453125 C 8.878906 -9.617188 8.546875 -8.414062 8.546875 -6.84375 C 8.546875 -5.476562 8.828125 -4.46875 9.390625 -3.8125 C 9.960938 -3.164062 10.71875 -2.84375 11.65625 -2.84375 Z M 11.65625 -2.84375 "/></g></g></g><g fill="#dec2ba" fill-opacity="1"><g transform="translate(169.804015, 200.715865)"><g/></g></g><g fill="#dec2ba" fill-opacity="1"><g transform="translate(179.952212, 200.715865)"><g><path d="M 44.84375 -35.25 C 46.414062 -35.25 47.703125 -35.300781 48.703125 -35.40625 L 48.703125 -34.40625 C 47.867188 -34.070312 47.054688 -33.425781 46.265625 -32.46875 C 45.484375 -31.519531 44.828125 -30.179688 44.296875 -28.453125 L 35.5 0.09375 C 35.132812 0.0625 34.550781 0.046875 33.75 0.046875 C 32.945312 0.046875 32.363281 0.0625 32 0.09375 L 24.65625 -22.203125 L 17.25 0.09375 C 16.882812 0.0625 16.300781 0.046875 15.5 0.046875 C 14.695312 0.046875 14.113281 0.0625 13.75 0.09375 L 2.546875 -31.203125 C 2.148438 -32.296875 1.664062 -33.09375 1.09375 -33.59375 C 0.53125 -34.09375 -0.03125 -34.363281 -0.59375 -34.40625 L -0.59375 -35.40625 C 1.40625 -35.300781 3.882812 -35.25 6.84375 -35.25 C 9.644531 -35.25 11.695312 -35.300781 13 -35.40625 L 13 -34.40625 C 11.832031 -34.238281 11.25 -33.585938 11.25 -32.453125 C 11.25 -31.921875 11.398438 -31.171875 11.703125 -30.203125 L 19 -9.046875 L 24.046875 -23.953125 L 21.5 -31.703125 C 21.164062 -32.671875 20.773438 -33.34375 20.328125 -33.71875 C 19.878906 -34.101562 19.351562 -34.332031 18.75 -34.40625 L 18.75 -35.40625 C 20.613281 -35.300781 23 -35.25 25.90625 -35.25 C 29.164062 -35.25 31.5625 -35.300781 33.09375 -35.40625 L 33.09375 -34.40625 C 31.894531 -34.363281 31.03125 -34.21875 30.5 -33.96875 C 29.96875 -33.71875 29.703125 -33.242188 29.703125 -32.546875 C 29.703125 -31.953125 29.867188 -31.171875 30.203125 -30.203125 L 37.046875 -9.296875 L 41.796875 -24.40625 C 42.566406 -26.90625 42.953125 -28.835938 42.953125 -30.203125 C 42.953125 -31.628906 42.59375 -32.664062 41.875 -33.3125 C 41.15625 -33.96875 40.082031 -34.332031 38.65625 -34.40625 L 38.65625 -35.40625 C 40.914062 -35.300781 42.976562 -35.25 44.84375 -35.25 Z M 44.84375 -35.25 "/></g></g></g><g fill="#dec2ba" fill-opacity="1"><g transform="translate(226.844718, 200.715865)"><g><path d="M 7.703125 -38.75 C 9.109375 -38.75 10.21875 -38.40625 11.03125 -37.71875 C 11.84375 -37.039062 12.25 -36.101562 12.25 -34.90625 C 12.25 -33.695312 11.84375 -32.75 11.03125 -32.0625 C 10.21875 -31.382812 9.109375 -31.046875 7.703125 -31.046875 C 6.304688 -31.046875 5.195312 -31.382812 4.375 -32.0625 C 3.5625 -32.75 3.15625 -33.695312 3.15625 -34.90625 C 3.15625 -36.101562 3.5625 -37.039062 4.375 -37.71875 C 5.195312 -38.40625 6.304688 -38.75 7.703125 -38.75 Z M 11.59375 -4.65625 C 11.59375 -3.28125 11.832031 -2.332031 12.3125 -1.8125 C 12.800781 -1.300781 13.628906 -1.046875 14.796875 -1.046875 L 14.796875 0 C 11.460938 -0.132812 9.25 -0.203125 8.15625 -0.203125 C 7.113281 -0.203125 4.796875 -0.132812 1.203125 0 L 1.203125 -1.046875 C 2.398438 -1.046875 3.234375 -1.300781 3.703125 -1.8125 C 4.171875 -2.332031 4.40625 -3.28125 4.40625 -4.65625 L 4.40625 -20.40625 C 4.40625 -21.9375 4.171875 -23.050781 3.703125 -23.75 C 3.234375 -24.445312 2.398438 -24.796875 1.203125 -24.796875 L 1.203125 -25.84375 C 2.265625 -25.75 3.296875 -25.703125 4.296875 -25.703125 C 7.265625 -25.703125 9.695312 -25.9375 11.59375 -26.40625 Z M 11.59375 -4.65625 "/></g></g></g><g fill="#dec2ba" fill-opacity="1"><g transform="translate(241.092291, 200.715865)"><g><path d="M 11.40625 -4.65625 C 11.40625 -3.28125 11.632812 -2.332031 12.09375 -1.8125 C 12.5625 -1.300781 13.394531 -1.046875 14.59375 -1.046875 L 14.59375 0 C 11.132812 -0.132812 8.90625 -0.203125 7.90625 -0.203125 C 6.769531 -0.203125 4.46875 -0.132812 1 0 L 1 -1.046875 C 2.164062 -1.046875 2.988281 -1.300781 3.46875 -1.8125 C 3.957031 -2.332031 4.203125 -3.28125 4.203125 -4.65625 L 4.203125 -33.15625 C 4.203125 -34.6875 3.957031 -35.800781 3.46875 -36.5 C 2.988281 -37.195312 2.164062 -37.546875 1 -37.546875 L 1 -38.59375 C 2.0625 -38.5 3.09375 -38.453125 4.09375 -38.453125 C 7 -38.453125 9.4375 -38.6875 11.40625 -39.15625 Z M 11.40625 -4.65625 "/></g></g></g><g fill="#dec2ba" fill-opacity="1"><g transform="translate(255.13989, 200.715865)"><g><path d="M 11.09375 -26.546875 C 12.363281 -26.546875 13.53125 -26.382812 14.59375 -26.0625 C 15.664062 -25.75 16.484375 -25.394531 17.046875 -25 C 17.378906 -24.769531 17.679688 -24.65625 17.953125 -24.65625 C 18.253906 -24.65625 18.507812 -24.8125 18.71875 -25.125 C 18.9375 -25.4375 19.082031 -25.894531 19.15625 -26.5 L 20.203125 -26.5 C 20.066406 -24.800781 20 -21.867188 20 -17.703125 L 18.953125 -17.703125 C 18.648438 -19.898438 17.988281 -21.738281 16.96875 -23.21875 C 15.957031 -24.707031 14.484375 -25.453125 12.546875 -25.453125 C 11.546875 -25.453125 10.71875 -25.164062 10.0625 -24.59375 C 9.414062 -24.03125 9.09375 -23.25 9.09375 -22.25 C 9.09375 -21.113281 9.476562 -20.132812 10.25 -19.3125 C 11.019531 -18.5 12.21875 -17.507812 13.84375 -16.34375 L 15.296875 -15.296875 C 17.328125 -13.765625 18.828125 -12.398438 19.796875 -11.203125 C 20.765625 -10.003906 21.25 -8.503906 21.25 -6.703125 C 21.25 -5.234375 20.820312 -3.929688 19.96875 -2.796875 C 19.125 -1.660156 17.984375 -0.789062 16.546875 -0.1875 C 15.117188 0.40625 13.535156 0.703125 11.796875 0.703125 C 9.960938 0.703125 8.394531 0.351562 7.09375 -0.34375 C 6.03125 -0.882812 5.265625 -1.238281 4.796875 -1.40625 C 4.460938 -1.5 4.171875 -1.382812 3.921875 -1.0625 C 3.671875 -0.75 3.476562 -0.28125 3.34375 0.34375 L 2.296875 0.34375 C 2.429688 -1.550781 2.5 -4.882812 2.5 -9.65625 L 3.546875 -9.65625 C 4.210938 -3.519531 6.460938 -0.453125 10.296875 -0.453125 C 11.265625 -0.453125 12.085938 -0.742188 12.765625 -1.328125 C 13.453125 -1.910156 13.796875 -2.800781 13.796875 -4 C 13.796875 -4.9375 13.585938 -5.769531 13.171875 -6.5 C 12.753906 -7.226562 12.226562 -7.875 11.59375 -8.4375 C 10.96875 -9.007812 10.019531 -9.796875 8.75 -10.796875 C 7.25 -11.992188 6.109375 -12.957031 5.328125 -13.6875 C 4.546875 -14.425781 3.878906 -15.296875 3.328125 -16.296875 C 2.773438 -17.296875 2.5 -18.414062 2.5 -19.65625 C 2.5 -21.78125 3.332031 -23.457031 5 -24.6875 C 6.664062 -25.925781 8.695312 -26.546875 11.09375 -26.546875 Z M 11.09375 -26.546875 "/></g></g></g><g fill="#dec2ba" fill-opacity="1"><g transform="translate(276.736309, 200.715865)"><g><path d="M 14.09375 -26.546875 C 17.925781 -26.546875 20.925781 -25.453125 23.09375 -23.265625 C 25.257812 -21.085938 26.34375 -17.632812 26.34375 -12.90625 C 26.34375 -8.164062 25.257812 -4.710938 23.09375 -2.546875 C 20.925781 -0.378906 17.925781 0.703125 14.09375 0.703125 C 10.300781 0.703125 7.3125 -0.378906 5.125 -2.546875 C 2.9375 -4.710938 1.84375 -8.164062 1.84375 -12.90625 C 1.84375 -17.632812 2.9375 -21.085938 5.125 -23.265625 C 7.3125 -25.453125 10.300781 -26.546875 14.09375 -26.546875 Z M 14.09375 -25.546875 C 12.664062 -25.546875 11.523438 -24.503906 10.671875 -22.421875 C 9.828125 -20.335938 9.40625 -17.164062 9.40625 -12.90625 C 9.40625 -8.632812 9.828125 -5.460938 10.671875 -3.390625 C 11.523438 -1.328125 12.664062 -0.296875 14.09375 -0.296875 C 15.5625 -0.296875 16.710938 -1.320312 17.546875 -3.375 C 18.378906 -5.425781 18.796875 -8.601562 18.796875 -12.90625 C 18.796875 -17.195312 18.367188 -20.375 17.515625 -22.4375 C 16.671875 -24.507812 15.53125 -25.546875 14.09375 -25.546875 Z M 14.09375 -25.546875 "/></g></g></g><g fill="#dec2ba" fill-opacity="1"><g transform="translate(303.48195, 200.715865)"><g><path d="M 19.796875 -26.546875 C 22.328125 -26.546875 24.160156 -25.894531 25.296875 -24.59375 C 25.867188 -23.96875 26.269531 -23.15625 26.5 -22.15625 C 26.726562 -21.15625 26.84375 -19.800781 26.84375 -18.09375 L 26.84375 -4.65625 C 26.84375 -3.28125 27.082031 -2.332031 27.5625 -1.8125 C 28.050781 -1.300781 28.878906 -1.046875 30.046875 -1.046875 L 30.046875 0 C 26.710938 -0.132812 24.515625 -0.203125 23.453125 -0.203125 C 22.453125 -0.203125 20.285156 -0.132812 16.953125 0 L 16.953125 -1.046875 C 17.953125 -1.046875 18.648438 -1.300781 19.046875 -1.8125 C 19.453125 -2.332031 19.65625 -3.28125 19.65625 -4.65625 L 19.65625 -20.203125 C 19.65625 -21.566406 19.425781 -22.597656 18.96875 -23.296875 C 18.519531 -23.992188 17.710938 -24.34375 16.546875 -24.34375 C 15.179688 -24.34375 14.015625 -23.785156 13.046875 -22.671875 C 12.078125 -21.554688 11.59375 -20.179688 11.59375 -18.546875 L 11.59375 -4.65625 C 11.59375 -3.28125 11.789062 -2.332031 12.1875 -1.8125 C 12.59375 -1.300781 13.296875 -1.046875 14.296875 -1.046875 L 14.296875 0 C 11.234375 -0.132812 9.164062 -0.203125 8.09375 -0.203125 C 7.09375 -0.203125 4.796875 -0.132812 1.203125 0 L 1.203125 -1.046875 C 2.398438 -1.046875 3.234375 -1.300781 3.703125 -1.8125 C 4.171875 -2.332031 4.40625 -3.28125 4.40625 -4.65625 L 4.40625 -20.40625 C 4.40625 -21.9375 4.171875 -23.050781 3.703125 -23.75 C 3.234375 -24.445312 2.398438 -24.796875 1.203125 -24.796875 L 1.203125 -25.84375 C 2.265625 -25.75 3.296875 -25.703125 4.296875 -25.703125 C 7.265625 -25.703125 9.695312 -25.9375 11.59375 -26.40625 L 11.59375 -21.90625 C 13.09375 -25 15.828125 -26.546875 19.796875 -26.546875 Z M 19.796875 -26.546875 "/></g></g></g><g clip-path="url(#7ac6a82a9e)"><path fill="#060606" d="M 57.097656 221.089844 L 318 221.089844 L 318 245.839844 L 57.097656 245.839844 L 57.097656 221.089844 " fill-opacity="1" fill-rule="nonzero"/></g><g fill="#fbfaf9" fill-opacity="1"><g transform="translate(69.425771, 238.444247)"><g><path d="M 7.203125 -7.625 L 2.6875 -7.625 L 2.6875 -5.03125 L 6.765625 -5.03125 L 6.765625 -3.6875 L 2.6875 -3.6875 L 2.6875 0 L 1.1875 0 L 1.1875 -8.984375 L 7.203125 -8.984375 Z M 7.203125 -7.625 "/></g></g></g><g fill="#fbfaf9" fill-opacity="1"><g transform="translate(83.854545, 238.444247)"><g><path d="M 6.984375 -2.03125 L 2.453125 -2.03125 L 1.59375 0 L 0.015625 0 L 3.984375 -8.984375 L 5.53125 -8.984375 L 9.453125 0 L 7.84375 0 Z M 6.40625 -3.375 L 4.703125 -7.359375 L 3.015625 -3.375 Z M 6.40625 -3.375 "/></g></g></g><g fill="#fbfaf9" fill-opacity="1"><g transform="translate(100.373022, 238.444247)"><g><path d="M 4.125 -9.046875 C 5.289062 -9.046875 6.34375 -8.738281 7.28125 -8.125 L 6.640625 -6.78125 C 5.722656 -7.34375 4.847656 -7.625 4.015625 -7.625 C 3.554688 -7.625 3.195312 -7.539062 2.9375 -7.375 C 2.675781 -7.207031 2.546875 -6.972656 2.546875 -6.671875 C 2.546875 -6.378906 2.664062 -6.128906 2.90625 -5.921875 C 3.144531 -5.710938 3.441406 -5.554688 3.796875 -5.453125 C 4.160156 -5.359375 4.550781 -5.234375 4.96875 -5.078125 C 5.394531 -4.929688 5.785156 -4.773438 6.140625 -4.609375 C 6.503906 -4.441406 6.800781 -4.179688 7.03125 -3.828125 C 7.269531 -3.472656 7.390625 -3.046875 7.390625 -2.546875 C 7.390625 -1.753906 7.070312 -1.125 6.4375 -0.65625 C 5.8125 -0.1875 5 0.046875 4 0.046875 C 3.3125 0.046875 2.644531 -0.078125 2 -0.328125 C 1.363281 -0.585938 0.804688 -0.9375 0.328125 -1.375 L 0.984375 -2.6875 C 1.441406 -2.257812 1.941406 -1.929688 2.484375 -1.703125 C 3.023438 -1.484375 3.539062 -1.375 4.03125 -1.375 C 4.5625 -1.375 4.972656 -1.46875 5.265625 -1.65625 C 5.554688 -1.851562 5.703125 -2.125 5.703125 -2.46875 C 5.703125 -2.769531 5.582031 -3.023438 5.34375 -3.234375 C 5.101562 -3.441406 4.800781 -3.59375 4.4375 -3.6875 C 4.082031 -3.789062 3.695312 -3.910156 3.28125 -4.046875 C 2.863281 -4.191406 2.472656 -4.34375 2.109375 -4.5 C 1.753906 -4.664062 1.457031 -4.921875 1.21875 -5.265625 C 0.976562 -5.617188 0.859375 -6.046875 0.859375 -6.546875 C 0.859375 -7.304688 1.15625 -7.910156 1.75 -8.359375 C 2.351562 -8.816406 3.144531 -9.046875 4.125 -9.046875 Z M 4.125 -9.046875 "/></g></g></g><g fill="#fbfaf9" fill-opacity="1"><g transform="translate(115.404352, 238.444247)"><g><path d="M 8.96875 0 L 7.453125 0 L 7.453125 -3.71875 L 2.6875 -3.71875 L 2.6875 0 L 1.1875 0 L 1.1875 -8.984375 L 2.6875 -8.984375 L 2.6875 -5.078125 L 7.453125 -5.078125 L 7.453125 -8.984375 L 8.96875 -8.984375 Z M 8.96875 0 "/></g></g></g><g fill="#fbfaf9" fill-opacity="1"><g transform="translate(132.602297, 238.444247)"><g><path d="M 2.6875 0 L 1.1875 0 L 1.1875 -8.984375 L 2.6875 -8.984375 Z M 2.6875 0 "/></g></g></g><g fill="#fbfaf9" fill-opacity="1"><g transform="translate(143.531146, 238.444247)"><g><path d="M 1.8125 -7.703125 C 2.726562 -8.578125 3.851562 -9.015625 5.1875 -9.015625 C 6.53125 -9.015625 7.660156 -8.578125 8.578125 -7.703125 C 9.492188 -6.835938 9.953125 -5.765625 9.953125 -4.484375 C 9.953125 -3.203125 9.492188 -2.125 8.578125 -1.25 C 7.660156 -0.375 6.53125 0.0625 5.1875 0.0625 C 3.851562 0.0625 2.726562 -0.375 1.8125 -1.25 C 0.894531 -2.125 0.4375 -3.203125 0.4375 -4.484375 C 0.4375 -5.765625 0.894531 -6.835938 1.8125 -7.703125 Z M 5.203125 -7.65625 C 4.316406 -7.65625 3.554688 -7.347656 2.921875 -6.734375 C 2.285156 -6.128906 1.96875 -5.378906 1.96875 -4.484375 C 1.96875 -3.597656 2.285156 -2.84375 2.921875 -2.21875 C 3.566406 -1.601562 4.328125 -1.296875 5.203125 -1.296875 C 6.085938 -1.296875 6.84375 -1.601562 7.46875 -2.21875 C 8.09375 -2.84375 8.40625 -3.597656 8.40625 -4.484375 C 8.40625 -5.378906 8.09375 -6.128906 7.46875 -6.734375 C 6.84375 -7.347656 6.085938 -7.65625 5.203125 -7.65625 Z M 5.203125 -7.65625 "/></g></g></g><g fill="#fbfaf9" fill-opacity="1"><g transform="translate(160.972679, 238.444247)"><g><path d="M 8.96875 0 L 7.484375 0 L 2.6875 -6.4375 L 2.6875 0 L 1.1875 0 L 1.1875 -8.984375 L 2.671875 -8.984375 L 7.484375 -2.53125 L 7.484375 -8.984375 L 8.96875 -8.984375 Z M 8.96875 0 "/></g></g></g><g fill="#fbfaf9" fill-opacity="1"><g transform="translate(178.183442, 238.444247)"><g/></g></g><g fill="#fbfaf9" fill-opacity="1"><g transform="translate(188.548207, 238.444247)"><g><path d="M 1.1875 -8.984375 L 4.859375 -8.984375 C 6.203125 -8.984375 7.3125 -8.554688 8.1875 -7.703125 C 9.0625 -6.859375 9.5 -5.785156 9.5 -4.484375 C 9.5 -3.191406 9.054688 -2.117188 8.171875 -1.265625 C 7.296875 -0.421875 6.179688 0 4.828125 0 L 1.1875 0 Z M 2.6875 -7.625 L 2.6875 -1.359375 L 4.90625 -1.359375 C 5.78125 -1.359375 6.507812 -1.648438 7.09375 -2.234375 C 7.6875 -2.828125 7.984375 -3.578125 7.984375 -4.484375 C 7.984375 -5.390625 7.679688 -6.140625 7.078125 -6.734375 C 6.472656 -7.328125 5.726562 -7.625 4.84375 -7.625 Z M 2.6875 -7.625 "/></g></g></g><g fill="#fbfaf9" fill-opacity="1"><g transform="translate(205.541033, 238.444247)"><g><path d="M 7.59375 -7.625 L 2.6875 -7.625 L 2.6875 -5.203125 L 7.078125 -5.203125 L 7.078125 -3.828125 L 2.6875 -3.828125 L 2.6875 -1.359375 L 7.75 -1.359375 L 7.75 0 L 1.1875 0 L 1.1875 -8.984375 L 7.59375 -8.984375 Z M 7.59375 -7.625 "/></g></g></g><g fill="#fbfaf9" fill-opacity="1"><g transform="translate(221.008249, 238.444247)"><g><path d="M 4.125 -9.046875 C 5.289062 -9.046875 6.34375 -8.738281 7.28125 -8.125 L 6.640625 -6.78125 C 5.722656 -7.34375 4.847656 -7.625 4.015625 -7.625 C 3.554688 -7.625 3.195312 -7.539062 2.9375 -7.375 C 2.675781 -7.207031 2.546875 -6.972656 2.546875 -6.671875 C 2.546875 -6.378906 2.664062 -6.128906 2.90625 -5.921875 C 3.144531 -5.710938 3.441406 -5.554688 3.796875 -5.453125 C 4.160156 -5.359375 4.550781 -5.234375 4.96875 -5.078125 C 5.394531 -4.929688 5.785156 -4.773438 6.140625 -4.609375 C 6.503906 -4.441406 6.800781 -4.179688 7.03125 -3.828125 C 7.269531 -3.472656 7.390625 -3.046875 7.390625 -2.546875 C 7.390625 -1.753906 7.070312 -1.125 6.4375 -0.65625 C 5.8125 -0.1875 5 0.046875 4 0.046875 C 3.3125 0.046875 2.644531 -0.078125 2 -0.328125 C 1.363281 -0.585938 0.804688 -0.9375 0.328125 -1.375 L 0.984375 -2.6875 C 1.441406 -2.257812 1.941406 -1.929688 2.484375 -1.703125 C 3.023438 -1.484375 3.539062 -1.375 4.03125 -1.375 C 4.5625 -1.375 4.972656 -1.46875 5.265625 -1.65625 C 5.554688 -1.851562 5.703125 -2.125 5.703125 -2.46875 C 5.703125 -2.769531 5.582031 -3.023438 5.34375 -3.234375 C 5.101562 -3.441406 4.800781 -3.59375 4.4375 -3.6875 C 4.082031 -3.789062 3.695312 -3.910156 3.28125 -4.046875 C 2.863281 -4.191406 2.472656 -4.34375 2.109375 -4.5 C 1.753906 -4.664062 1.457031 -4.921875 1.21875 -5.265625 C 0.976562 -5.617188 0.859375 -6.046875 0.859375 -6.546875 C 0.859375 -7.304688 1.15625 -7.910156 1.75 -8.359375 C 2.351562 -8.816406 3.144531 -9.046875 4.125 -9.046875 Z M 4.125 -9.046875 "/></g></g></g><g fill="#fbfaf9" fill-opacity="1"><g transform="translate(236.039582, 238.444247)"><g><path d="M 2.6875 0 L 1.1875 0 L 1.1875 -8.984375 L 2.6875 -8.984375 Z M 2.6875 0 "/></g></g></g><g fill="#fbfaf9" fill-opacity="1"><g transform="translate(246.968437, 238.444247)"><g><path d="M 7.328125 -4.40625 L 8.640625 -4.40625 L 8.640625 -1.109375 C 8.179688 -0.753906 7.632812 -0.46875 7 -0.25 C 6.375 -0.0390625 5.757812 0.0625 5.15625 0.0625 C 3.832031 0.0625 2.710938 -0.375 1.796875 -1.25 C 0.890625 -2.125 0.4375 -3.203125 0.4375 -4.484375 C 0.4375 -5.765625 0.894531 -6.835938 1.8125 -7.703125 C 2.738281 -8.578125 3.882812 -9.015625 5.25 -9.015625 C 5.882812 -9.015625 6.503906 -8.898438 7.109375 -8.671875 C 7.722656 -8.453125 8.253906 -8.148438 8.703125 -7.765625 L 7.84375 -6.640625 C 7.101562 -7.328125 6.238281 -7.671875 5.25 -7.671875 C 4.332031 -7.671875 3.554688 -7.363281 2.921875 -6.75 C 2.285156 -6.132812 1.96875 -5.378906 1.96875 -4.484375 C 1.96875 -3.585938 2.285156 -2.832031 2.921875 -2.21875 C 3.566406 -1.601562 4.347656 -1.296875 5.265625 -1.296875 C 5.953125 -1.296875 6.640625 -1.5 7.328125 -1.90625 Z M 7.328125 -4.40625 "/></g></g></g><g fill="#fbfaf9" fill-opacity="1"><g transform="translate(263.627921, 238.444247)"><g><path d="M 8.96875 0 L 7.484375 0 L 2.6875 -6.4375 L 2.6875 0 L 1.1875 0 L 1.1875 -8.984375 L 2.671875 -8.984375 L 7.484375 -2.53125 L 7.484375 -8.984375 L 8.96875 -8.984375 Z M 8.96875 0 "/></g></g></g><g fill="#fbfaf9" fill-opacity="1"><g transform="translate(280.838689, 238.444247)"><g><path d="M 7.59375 -7.625 L 2.6875 -7.625 L 2.6875 -5.203125 L 7.078125 -5.203125 L 7.078125 -3.828125 L 2.6875 -3.828125 L 2.6875 -1.359375 L 7.75 -1.359375 L 7.75 0 L 1.1875 0 L 1.1875 -8.984375 L 7.59375 -8.984375 Z M 7.59375 -7.625 "/></g></g></g><g fill="#fbfaf9" fill-opacity="1"><g transform="translate(296.305904, 238.444247)"><g><path d="M 6.875 0 L 5.234375 -2.71875 C 5.148438 -2.707031 5.015625 -2.703125 4.828125 -2.703125 L 2.6875 -2.703125 L 2.6875 0 L 1.1875 0 L 1.1875 -8.984375 L 4.828125 -8.984375 C 5.972656 -8.984375 6.859375 -8.710938 7.484375 -8.171875 C 8.117188 -7.640625 8.4375 -6.882812 8.4375 -5.90625 C 8.4375 -5.195312 8.273438 -4.59375 7.953125 -4.09375 C 7.640625 -3.59375 7.179688 -3.226562 6.578125 -3 L 8.59375 0 Z M 2.6875 -4.0625 L 4.828125 -4.0625 C 6.273438 -4.0625 7 -4.664062 7 -5.875 C 7 -7.039062 6.273438 -7.625 4.828125 -7.625 L 2.6875 -7.625 Z M 2.6875 -4.0625 "/></g></g></g></svg>